<mxfile host="app.diagrams.net" agent="Mozilla/5.0 (Windows NT 10.0; Win64; x64) AppleWebKit/537.36 (KHTML, like Gecko) Chrome/131.0.0.0 Safari/537.36" version="26.0.3">
  <diagram name="Page-1" id="v-Yuii_U4lAQ5EKg4D5u">
    <mxGraphModel dx="794" dy="492" grid="1" gridSize="10" guides="1" tooltips="1" connect="1" arrows="1" fold="1" page="1" pageScale="1" pageWidth="827" pageHeight="1169" math="0" shadow="0">
      <root>
        <mxCell id="0" />
        <mxCell id="1" parent="0" />
        <mxCell id="aOHxwXezfj5cdc1zACe4-3" value="" style="edgeStyle=orthogonalEdgeStyle;rounded=0;orthogonalLoop=1;jettySize=auto;html=1;" edge="1" parent="1" source="aOHxwXezfj5cdc1zACe4-1">
          <mxGeometry relative="1" as="geometry">
            <mxPoint x="550" y="260" as="targetPoint" />
          </mxGeometry>
        </mxCell>
        <mxCell id="aOHxwXezfj5cdc1zACe4-1" value="Upload movie or film lor Anime link" style="rounded=1;whiteSpace=wrap;html=1;fillColor=#fff2cc;strokeColor=#d6b656;" vertex="1" parent="1">
          <mxGeometry x="350" y="230" width="120" height="60" as="geometry" />
        </mxCell>
        <mxCell id="aOHxwXezfj5cdc1zACe4-6" value="" style="edgeStyle=orthogonalEdgeStyle;rounded=0;orthogonalLoop=1;jettySize=auto;html=1;" edge="1" parent="1" source="aOHxwXezfj5cdc1zACe4-4" target="aOHxwXezfj5cdc1zACe4-5">
          <mxGeometry relative="1" as="geometry" />
        </mxCell>
        <mxCell id="aOHxwXezfj5cdc1zACe4-4" value="Video Processor" style="shape=cube;whiteSpace=wrap;html=1;boundedLbl=1;backgroundOutline=1;darkOpacity=0.05;darkOpacity2=0.1;fillColor=#d5e8d4;strokeColor=#82b366;" vertex="1" parent="1">
          <mxGeometry x="550" y="220" width="120" height="80" as="geometry" />
        </mxCell>
        <mxCell id="aOHxwXezfj5cdc1zACe4-8" value="" style="edgeStyle=orthogonalEdgeStyle;rounded=0;orthogonalLoop=1;jettySize=auto;html=1;" edge="1" parent="1" source="aOHxwXezfj5cdc1zACe4-5" target="aOHxwXezfj5cdc1zACe4-7">
          <mxGeometry relative="1" as="geometry" />
        </mxCell>
        <mxCell id="aOHxwXezfj5cdc1zACe4-5" value="Select scenes based on emotional mapping&amp;nbsp;" style="rounded=1;whiteSpace=wrap;html=1;fillColor=#fff2cc;strokeColor=#d6b656;" vertex="1" parent="1">
          <mxGeometry x="750" y="230" width="120" height="60" as="geometry" />
        </mxCell>
        <mxCell id="aOHxwXezfj5cdc1zACe4-10" value="" style="edgeStyle=orthogonalEdgeStyle;rounded=0;orthogonalLoop=1;jettySize=auto;html=1;" edge="1" parent="1" source="aOHxwXezfj5cdc1zACe4-7" target="aOHxwXezfj5cdc1zACe4-9">
          <mxGeometry relative="1" as="geometry" />
        </mxCell>
        <mxCell id="aOHxwXezfj5cdc1zACe4-7" value="create story line with chat bot&amp;nbsp;" style="whiteSpace=wrap;html=1;rounded=1;fillColor=#fff2cc;strokeColor=#d6b656;" vertex="1" parent="1">
          <mxGeometry x="950" y="230" width="120" height="60" as="geometry" />
        </mxCell>
        <mxCell id="aOHxwXezfj5cdc1zACe4-12" value="" style="edgeStyle=orthogonalEdgeStyle;rounded=0;orthogonalLoop=1;jettySize=auto;html=1;" edge="1" parent="1" source="aOHxwXezfj5cdc1zACe4-9" target="aOHxwXezfj5cdc1zACe4-11">
          <mxGeometry relative="1" as="geometry" />
        </mxCell>
        <mxCell id="aOHxwXezfj5cdc1zACe4-9" value="Last edits length and add effects and subtitles and background music and pictures for anime or movie database" style="whiteSpace=wrap;html=1;rounded=1;fillColor=#fff2cc;strokeColor=#d6b656;" vertex="1" parent="1">
          <mxGeometry x="1150" y="230" width="160" height="90" as="geometry" />
        </mxCell>
        <mxCell id="aOHxwXezfj5cdc1zACe4-11" value="Refine results with AI/ FINAL RESULTS&amp;nbsp;" style="whiteSpace=wrap;html=1;rounded=1;fillColor=#fff2cc;strokeColor=#d6b656;" vertex="1" parent="1">
          <mxGeometry x="1350" y="230" width="120" height="60" as="geometry" />
        </mxCell>
        <mxCell id="aOHxwXezfj5cdc1zACe4-14" value="" style="edgeStyle=orthogonalEdgeStyle;rounded=0;orthogonalLoop=1;jettySize=auto;html=1;" edge="1" parent="1" source="aOHxwXezfj5cdc1zACe4-13" target="aOHxwXezfj5cdc1zACe4-1">
          <mxGeometry relative="1" as="geometry" />
        </mxCell>
        <mxCell id="aOHxwXezfj5cdc1zACe4-13" value="API / LINK to movie and anime database" style="ellipse;shape=cloud;whiteSpace=wrap;html=1;fillColor=#f8cecc;strokeColor=#b85450;" vertex="1" parent="1">
          <mxGeometry x="330" y="110" width="140" height="100" as="geometry" />
        </mxCell>
        <mxCell id="aOHxwXezfj5cdc1zACe4-16" value="" style="edgeStyle=orthogonalEdgeStyle;rounded=0;orthogonalLoop=1;jettySize=auto;html=1;" edge="1" parent="1" source="aOHxwXezfj5cdc1zACe4-15" target="aOHxwXezfj5cdc1zACe4-4">
          <mxGeometry relative="1" as="geometry" />
        </mxCell>
        <object label="" id="aOHxwXezfj5cdc1zACe4-15">
          <mxCell style="ellipse;whiteSpace=wrap;html=1;" vertex="1" parent="1">
            <mxGeometry x="550" y="110" width="80" height="80" as="geometry" />
          </mxCell>
        </object>
      </root>
    </mxGraphModel>
  </diagram>
</mxfile>
